<svg width="601" height="272" viewBox="0 0 601 272" fill="none" xmlns="http://www.w3.org/2000/svg">
<g clip-path="url(#clip0_1_427)">
<path fill-rule="evenodd" clip-rule="evenodd" d="M198.077 194.209C198.23 194.54 198.384 194.872 198.537 195.206C198.384 194.874 198.23 194.539 198.077 194.209ZM133.982 142.469C133.774 144.073 133.566 145.677 133.87 147.177L134.212 140.378C134.164 141.07 134.073 141.77 133.982 142.469ZM140.726 143.482L141.681 144.611C141.385 144.142 141.105 143.739 140.726 143.482ZM121.384 164.265C116.601 165.494 115.494 162.446 114.537 156.5L121.384 164.265Z" fill="url(#paint0_linear_1_427)"/>
<path d="M169.739 157.855C168.142 158.415 166.509 158.987 164.853 159.66C168.77 161.628 172.914 163.375 177.119 164.959C181.46 166.594 185.434 165.348 189.716 163.918C193.668 162.598 197.807 161.838 202.264 161.021C204.264 160.654 206.328 160.275 208.467 159.829C207.55 164.629 204.629 166.645 201.757 168.629C199.701 170.049 197.67 171.452 196.414 173.845C197.181 173.761 197.97 173.731 198.76 173.7C200.501 173.632 202.243 173.564 203.741 172.926C205.989 171.969 208.149 170.803 210.308 169.638C212.68 168.358 215.05 167.079 217.534 166.077C219.298 165.365 223.101 165.748 223.667 166.834C224.9 169.203 223.805 171.678 220.789 173.104C218.379 174.245 216.113 175.692 213.863 177.128C212.89 177.75 211.92 178.369 210.943 178.961C215.003 183.243 218.469 181.413 222.061 179.518C222.355 179.362 222.65 179.207 222.946 179.054C228.175 176.356 229.419 176.911 232.035 182.369L227.936 186.697C228.553 187.062 229.175 187.388 229.782 187.707C231.159 188.43 232.458 189.112 233.439 190.107C234.103 190.781 234.324 191.89 234.545 192.998C234.644 193.494 234.743 193.99 234.881 194.447C234.457 194.534 234.034 194.64 233.61 194.746C232.665 194.982 231.719 195.218 230.767 195.246C229.309 195.288 227.847 195.186 226.245 195.075C225.529 195.025 224.784 194.973 224 194.932C224 195.328 223.987 195.683 223.974 196.008C223.951 196.637 223.931 197.156 224.021 197.656C224.514 200.374 223.036 201.521 220.682 201.98C218.244 202.456 216.811 201.52 215.955 199.087C215.138 196.766 214.143 194.506 213.128 192.201C212.688 191.201 212.243 190.191 211.808 189.165H206.008C206.37 190.175 206.75 191.163 207.124 192.139C208.015 194.46 208.881 196.715 209.439 199.044C209.718 200.208 209.47 201.498 209.221 202.788C209.109 203.372 208.997 203.955 208.933 204.526C208.318 204.423 207.62 204.387 206.923 204.351C205.386 204.272 203.85 204.193 203.187 203.391C201.216 201.011 199.863 198.08 198.537 195.206C198.384 194.874 198.23 194.539 198.077 194.209C197.201 192.328 196.57 190.328 195.941 188.335C195.797 187.88 195.654 187.425 195.507 186.971C194.386 183.498 191.947 182.118 188.671 182.049L190.481 193.217L190.398 193.204C185.132 192.368 179.624 191.494 178.823 187.004C177.148 177.615 170.426 174.96 163.56 172.247C162.556 171.851 161.549 171.453 160.554 171.033C159.659 170.654 158.693 170.442 157.579 170.197C157.015 170.073 156.413 169.941 155.763 169.775C156.442 171.121 157.054 172.438 157.641 173.715L157.884 174.244C159.331 177.399 160.663 180.301 162.536 182.797C164.956 186.02 168.335 188.858 171.87 190.826C174.824 192.47 178.047 193.624 181.273 194.779C182.89 195.358 184.508 195.937 186.092 196.578C189.236 197.85 190.893 200.404 189.65 203.53C188.503 206.414 185.786 206.495 182.898 205.507C179.836 204.459 176.719 203.572 173.602 202.686L173.464 202.646C172.185 202.283 170.907 201.919 169.633 201.543L168.605 203.362C169.398 203.937 170.176 204.541 170.954 205.144C172.714 206.509 174.474 207.874 176.408 208.915C178.316 209.943 180.352 210.728 182.39 211.514C183.792 212.054 185.195 212.595 186.557 213.216C190.459 214.992 193.204 217.58 191.479 223.436L175.248 219.883L174.242 221.588C175.014 222.176 175.762 222.817 176.511 223.458C178.186 224.892 179.862 226.326 181.795 227.172C182.141 227.324 182.489 227.471 182.834 227.617C186.498 229.165 189.916 230.61 189.24 236.621L180.907 237.279C181.019 237.944 181.157 238.602 181.293 239.256C181.613 240.782 181.927 242.285 181.893 243.779C181.871 244.749 181.359 245.708 180.848 246.667C180.619 247.097 180.39 247.526 180.205 247.957C179.763 247.725 179.278 247.526 178.793 247.327C177.729 246.89 176.664 246.453 176.058 245.664C175.929 245.496 175.801 245.327 175.675 245.16C173.586 242.409 171.77 240.016 168.277 244.087C167.752 244.698 165.584 244.939 165.352 244.584L165.3 244.505C164.292 242.964 163.087 241.121 163.182 239.46C163.27 237.927 164.16 236.408 165.021 234.938C165.234 234.575 165.445 234.214 165.642 233.858C167.691 230.142 167.592 226.848 163.542 223.215C163.022 224.25 162.552 225.266 162.095 226.252C161.07 228.468 160.111 230.539 158.81 232.367C157.844 233.726 156.399 234.748 154.959 235.766C154.384 236.173 153.811 236.579 153.268 237.005C152.986 237.227 152.64 237.408 152.299 237.586C151.728 237.884 151.17 238.176 150.938 238.642C148.57 243.414 143.904 244.127 139.61 244.784C139.448 244.809 139.286 244.834 139.124 244.859C133.295 245.759 127.299 246.105 121.398 245.92C101.343 245.292 82.2578 240.759 65.7581 228.876C51.2994 218.463 41.8095 204.537 38.9514 186.501C36.8643 173.331 35.5344 160.216 39.0312 147.097C39.3531 145.89 39.8783 144.736 40.4035 143.583C40.6467 143.049 40.89 142.515 41.113 141.976L42.3358 142.167C42.4058 142.701 42.4665 143.237 42.5273 143.773C42.6588 144.933 42.7904 146.093 43.0153 147.235C43.5782 150.093 43.9831 153.026 44.388 155.961C45.3011 162.578 46.2147 169.198 48.9419 174.957C57.8082 193.68 72.7203 206.756 92.7386 213.267C102.325 216.385 112.028 219.156 121.733 221.886C123.539 222.394 125.609 221.959 127.877 221.196C127.146 220.8 126.426 220.375 125.707 219.951C124.147 219.031 122.588 218.112 120.921 217.474C107.488 212.334 96.3312 204.114 88.0627 192.402C81.866 183.625 78.9723 173.44 82.3135 163.06C83.585 159.11 86.4013 155.636 89.1993 152.185C90.2511 150.887 91.3004 149.593 92.2641 148.277C97.9757 140.482 105.417 134.587 112.912 128.65C113.768 127.972 114.626 127.293 115.481 126.611C119.853 123.122 123.587 118.831 127.319 114.542C128.848 112.784 130.377 111.027 131.949 109.326C132.564 108.66 133.075 107.897 133.802 106.81C134.214 106.194 134.696 105.475 135.305 104.61C135.818 105.705 136.351 106.683 136.845 107.592C137.82 109.381 138.647 110.899 138.877 112.502C140.044 120.62 138.084 128.424 134.568 135.63C133.787 137.231 132.169 138.399 130.53 139.582C129.544 140.294 128.551 141.011 127.727 141.831C124.412 145.132 121.171 148.508 117.959 151.852C116.65 153.215 115.346 154.573 114.043 155.919L136.899 152.968C136.553 152.343 136.167 151.741 135.786 151.149C134.94 149.831 134.151 148.559 133.87 147.177L134.212 140.378C134.854 140.672 135.481 140.945 136.137 141.218C137.722 141.878 139.334 142.538 140.726 143.482L141.681 144.611C141.725 144.681 141.744 144.752 141.789 144.824C142.243 145.551 142.772 146.398 143.761 147.098L148.216 118.804L151.911 120.809C151.867 120.489 151.831 120.179 151.796 119.877C151.723 119.246 151.654 118.645 151.523 118.062C151.182 116.547 150.814 115.036 150.446 113.525C149.564 109.904 148.683 106.284 148.179 102.611C148.038 101.581 148.911 100.412 149.783 99.2431C150.183 98.7072 150.583 98.1713 150.885 97.6488C151.348 97.976 151.851 98.275 152.354 98.574C153.471 99.238 154.589 99.9021 155.258 100.875C156.354 102.468 157.195 104.236 158.037 106.005C158.503 106.985 158.97 107.966 159.48 108.918C159.893 109.689 160.689 110.916 161.165 110.852C162.149 110.722 163.823 109.875 163.83 109.304L163.835 108.981C163.872 106.204 163.911 103.3 163.104 100.705C162.143 97.6166 160.924 94.6098 159.703 91.6015C158.943 89.7268 158.182 87.8514 157.483 85.9553C157.044 84.763 156.803 83.2881 157.092 82.0931C157.414 80.76 158.207 78.9165 159.234 78.5595C160.194 78.2257 162.187 79.211 162.922 80.208C163.896 81.5278 164.694 82.9749 165.493 84.4234C166.173 85.6559 166.854 86.8895 167.643 88.0463C168.329 89.0512 169.268 89.8836 170.207 90.716C170.629 91.0906 171.052 91.4652 171.451 91.8555C171.653 91.1393 171.928 90.4125 172.204 89.6858C172.823 88.0532 173.442 86.4207 173.226 84.9073C172.81 81.9997 171.352 79.0886 169.76 76.5425C168.037 73.786 169.578 72.0249 171.455 71.4368C172.567 71.0883 174.088 71.8708 175.498 72.5963C175.866 72.7854 176.226 72.9707 176.569 73.131C177.152 73.4031 177.627 73.9044 178.097 74.3996C178.308 74.6216 178.517 74.8425 178.734 75.0409L186.509 65.3322L188.888 66.0346C188.895 66.8859 188.976 67.7647 189.056 68.6435C189.235 70.5976 189.414 72.5518 188.791 74.2036C187.38 77.9449 188.749 77.874 191.225 77.7457C191.431 77.735 191.645 77.724 191.865 77.7147C193.466 77.6471 196.299 78.4915 196.493 79.3796C196.877 81.1394 196.414 83.828 195.204 85.0075C193.624 86.5476 191.085 87.27 188.823 87.9137L188.737 87.9381C184.62 89.1096 181.984 91.4267 181.357 96.5938C182.733 96.2003 184.088 95.8318 185.424 95.4683C188.545 94.6192 191.565 93.7978 194.504 92.7524L194.692 92.6854C197.036 91.8494 198.815 91.2148 200.026 94.2783C201.192 97.2265 200.612 98.8985 197.491 100.19C194.84 101.286 192.245 102.526 189.651 103.766C186.013 105.504 182.378 107.24 178.599 108.578C174.788 109.926 174.052 112.145 173.986 116.644C175.44 116.158 176.85 115.656 178.233 115.164C181.494 114.004 184.605 112.897 187.803 112.168C188.327 112.049 188.902 111.788 189.497 111.518C191.494 110.612 193.725 109.6 195.06 113.469C196.605 117.948 194.205 120.182 190.776 121.611C187.904 122.807 184.984 123.89 182.064 124.973C178.526 126.285 174.988 127.597 171.537 129.111C169.221 130.127 166.832 132.017 165.555 134.153C162.634 139.039 160.379 144.323 158.26 149.804C160.034 148.933 161.867 148.167 163.695 147.404C170.6 144.519 177.419 141.67 180.588 133.304C181.363 131.258 183.558 129.749 185.752 128.241C186.759 127.549 187.765 126.857 188.635 126.113L189.818 127.175V136.422C195.2 136.477 196.102 133.03 196.988 129.642C197.265 128.586 197.54 127.535 197.948 126.598C198.582 125.146 199.102 123.637 199.621 122.132C200.401 119.872 201.178 117.617 202.332 115.569C202.853 114.645 204.315 114.252 205.777 113.859C206.443 113.68 207.109 113.501 207.685 113.271C207.823 113.789 208.008 114.31 208.192 114.832C208.602 115.988 209.011 117.144 208.904 118.25C208.7 120.36 208.186 122.44 207.672 124.52C207.453 125.406 207.234 126.292 207.039 127.181C211.207 128.323 213.069 126.604 214.097 121.612C214.573 119.304 215.535 116.238 217.269 115.237C220.271 113.505 222.845 116.099 223.449 121.284C224.1 121.159 224.747 121.012 225.393 120.865C226.924 120.517 228.446 120.171 229.976 120.128C231.258 120.091 233.487 120.812 233.66 121.566C233.956 122.857 233.335 124.737 232.439 125.83C231.645 126.799 230.548 127.519 229.314 128.331C228.744 128.705 228.145 129.099 227.533 129.545L232.199 133.641C230.018 137.671 227.163 138.394 223.088 136.639C222.865 136.544 222.641 136.445 222.416 136.346C219.142 134.905 215.563 133.331 212.696 138.427C213.612 138.922 214.535 139.393 215.452 139.861C217.68 140.998 219.875 142.119 221.863 143.531C222.744 144.157 223.239 145.326 223.735 146.494C223.959 147.025 224.184 147.555 224.445 148.034C223.943 148.24 223.419 148.531 222.896 148.821C221.755 149.453 220.614 150.085 219.699 149.848C217.082 149.17 214.527 148.263 211.97 147.355C209.703 146.551 207.434 145.746 205.123 145.1C203.384 144.614 201.529 144.544 199.675 144.474C198.837 144.442 197.998 144.411 197.171 144.341L196.683 146.247C197.5 146.767 198.322 147.279 199.144 147.791C201.229 149.092 203.315 150.392 205.314 151.814C205.992 152.296 206.477 153.049 206.962 153.802C207.183 154.146 207.405 154.49 207.645 154.808C207.265 155.037 206.893 155.289 206.521 155.54C205.711 156.088 204.901 156.635 204.01 156.961C199.14 158.739 194.43 157.412 190.035 155.439C185.211 153.273 180.74 153.237 175.95 155.454C174.079 156.319 172.13 157.015 170.123 157.72L169.739 157.855ZM111.76 160.81C110.978 161.894 110.391 162.708 109.907 163.579C103.258 175.549 107.311 191.44 115.554 201.811C123.887 212.294 134.737 220.203 145.904 227.646C149.569 230.089 150.436 228.366 151.651 225.774C152.287 224.416 152.877 223.031 153.465 221.647C154.568 219.055 155.671 216.464 157.083 214.054C159.364 210.16 158.647 207.084 155.823 203.625L146.793 218.685C142.95 212.723 140.462 207.57 143.994 201.75C145.498 199.272 146.876 196.676 147.941 193.987C148.635 192.237 149.272 190.081 148.872 188.354C148.013 184.652 146.891 181.01 145.675 177.061C145.18 175.455 144.67 173.797 144.155 172.065C143.67 172.505 143.193 172.869 142.763 173.198C141.949 173.82 141.303 174.313 141.09 174.951C139.88 178.57 138.769 182.256 138.059 186C137.916 186.756 137.81 187.528 137.705 188.301C137.161 192.274 136.612 196.288 130.907 198.447L128.193 190.382C122.077 189.544 120.869 187.94 122.948 181.52L137.295 164.016C135.234 164.016 133.312 163.921 131.502 163.831C127.711 163.644 124.441 163.48 121.384 164.265L114.537 156.5C114.081 155.919 112.306 160.054 111.913 160.598L111.76 160.81Z" fill="url(#paint1_linear_1_427)"/>
<path d="M134.5 140.5C137 139.613 143.5 146 143.5 146L145.5 133.5L148 118L152 121L144.5 158.5L151 188L148.5 187L143.5 172.5C143.5 172.5 140.634 175.43 139 181C137.838 184.962 138.039 189.175 137 192.5C136.094 195.399 133.605 200.063 131 198.5C128.5 197 128 190.5 128 190.5C128 190.5 124.549 190.424 123 188.5C121.631 186.8 122 183 122 183L136.5 164L119 164.5C111.5 164.5 115 156 115.5 155.5L136.5 153C136.5 153 129.5 142.274 134.5 140.5Z" fill="url(#paint2_linear_1_427)"/>
<path d="M123.306 23.7529C121.696 20.3692 120.311 17.3015 119.039 14.1874C118.821 13.6535 119.088 12.9214 119.186 11.4582C121.251 12.4574 123.179 12.9203 124.468 14.0891C134.955 23.6014 144.141 34.3987 148.287 48.0255C153.345 64.6466 151.402 80.3306 139.388 94.3541C127.755 107.932 112.558 116.905 99.123 128.138C88.3083 137.18 77.4959 146.501 74.5207 161.748C72.1141 174.081 75.4762 184.725 82.819 194.049C87.6307 200.16 93.9307 205.098 100.006 210.989C95.4891 211.849 90.2751 210.012 84.4326 205.779C78.7892 201.69 72.6584 198.018 67.8564 193.079C59.3012 184.281 51.7752 174.673 47.9176 162.539C40.6791 139.77 48.5831 120.321 60.7354 101.896C69.2981 88.9138 80.7699 78.5089 92.2101 68.0438C101.51 59.537 109.828 49.9577 118.947 40.4741C122.489 43.7044 122.482 49.0239 121.856 54.0142C120.587 64.132 117.277 73.687 112.121 82.5494C111.984 82.7848 112.104 83.1696 112.104 83.4889C121.816 82.0019 134.265 46.0734 123.306 23.7529Z" fill="url(#paint3_linear_1_427)"/>
<path d="M63 146.5C60.4513 165.615 79 201.5 79 201.5C79 201.5 63.7625 192 56 179C47.5977 164.928 43.3052 156.742 45.5 140.5C48 122 53.3673 111 65 96C78 79.2368 119 42.5 119 42.5C119 42.5 77.5 93.1598 83 91.5C92.3934 88.6652 104.5 78.5 104.5 78.5L92.5 94C92.5 94 80.4141 104.701 75.5 113.5C67.5513 127.733 65 131.5 63 146.5Z" fill="url(#paint4_linear_1_427)"/>
<path d="M386.875 174.373C386.049 172.241 385.093 170.445 385.07 168.638C384.931 157.315 384.752 145.982 385.117 134.669C385.272 129.84 383.619 128.535 379.115 128.924C374.993 129.281 370.815 129 366.659 129C367.448 138.793 366.661 147.687 355.247 152.366C360.223 159.346 364.903 165.912 369.569 172.457C361.846 178.094 351.818 175.339 346.976 166.921C345.214 163.857 343.602 160.593 341.268 158.013C339.841 156.435 337.169 155.985 335.056 155.028C334.371 156.836 333.298 158.6 333.089 160.462C332.756 163.422 332.804 166.463 333.048 169.441C333.37 173.372 331.183 174.706 327.859 174.97C325.874 175.127 323.837 175.209 321.873 174.949C318.919 174.557 316.845 173.466 316.921 169.671C317.144 158.517 317.096 147.355 316.942 136.2C316.895 132.855 318.167 131.972 321.346 131.934C332.697 131.797 332.696 131.694 333.15 143.995C336.53 143.995 339.971 144.216 343.371 143.937C347.325 143.612 351.3 138.743 350.979 135.081C350.605 130.812 347.406 128.185 342.608 127.981C336.693 127.729 330.786 127.293 324.871 127.026C323.06 126.945 321.085 126.74 319.452 127.33C316.997 128.219 314.581 128.903 314.121 125.668C313.786 123.313 314.402 120.527 315.483 118.381C316.11 117.136 318.517 116.087 320.088 116.133C330.774 116.449 341.577 116.283 352.077 117.948C357.25 118.768 361.857 123.162 367 126.099C367 124.89 367.199 122.833 366.956 120.829C366.537 117.384 368.174 116.015 371.332 116.01C384.821 115.989 398.311 115.943 411.799 116.064C413.809 116.082 415.812 116.943 417.764 117.401C418.496 128.986 418.489 129.236 406.971 128.883C402.033 128.732 400.743 130.326 400.896 135.079C401.231 145.56 401.001 156.059 401 166.551C400.999 174.187 400.194 175.017 392.63 174.986C390.812 174.979 388.995 174.803 386.875 174.373Z" fill="url(#paint5_linear_1_427)"/>
<path d="M260.985 122.864C261.243 121.874 261.624 121.3 261.706 120.686C263.226 109.273 270.764 107.817 280.373 108.852C283.632 109.204 285.731 110.387 286.952 113.007C293.379 126.8 299.644 140.669 306.012 154.49C308.092 159.004 310.352 163.435 312.444 167.945C313.237 169.656 313.787 171.479 314.83 174.277C309.609 174.547 305.142 175.454 300.949 174.743C298.414 174.314 295.573 171.814 294.166 169.466C291.653 165.276 290.122 160.497 287.977 155.489C280.603 157.776 273.585 159.412 267.063 162.207C263.922 163.554 261.135 166.711 259.217 169.708C256.057 174.647 245.37 177.228 240.995 173.356C240.494 172.912 240.553 171.369 240.873 170.537C244.203 161.884 247.477 153.203 251.096 144.67C254.162 137.439 257.661 130.39 260.985 122.864ZM274.973 130.554C272.506 136.512 270.039 142.471 267.518 148.558C273.758 149.04 279.206 149.461 285.514 149.948C283.61 145.194 281.722 140.04 279.458 135.057C278.607 133.183 276.883 131.705 274.973 130.554Z" fill="url(#paint6_linear_1_427)"/>
<path d="M537 126.064C537 139 537 139 549.595 139C560 139 560 139 560 128.356C560 127.856 560 127.356 560 126.856C560 116.009 560.02 115.851 570.671 117.173C572.26 117.37 574.786 119.842 574.812 121.298C575.107 137.79 574.972 154.29 575.017 170.787C575.029 175.306 570.396 173.895 570.103 174.037C569.809 174.18 568.22 174.06 567.761 174.037C565.303 173.914 561.138 174.614 560.711 173.643C559.599 171.118 560.061 167.871 560.016 164.911C559.953 160.775 560 156.637 560 151.752C552.313 151.752 544.91 151.752 537 151.752C537 157.834 536.864 163.452 537.045 169.06C537.178 173.193 535.742 175.105 531.335 175.066C522.413 174.987 521 173.783 521 165.048C521 156.216 521 147.384 521 138.552C521 133.058 521.064 127.563 520.977 122.07C520.921 118.536 522.467 116.823 526.034 116.994C526.865 117.034 527.7 116.996 528.533 117.001C538.12 117.052 536.932 115.95 537 126.064Z" fill="url(#paint7_linear_1_427)"/>
<path d="M420 144.002C420.333 137.273 420.185 130.961 421.235 124.855C421.658 122.39 424.407 118.829 426.601 118.412C439.242 116.004 452.015 116.692 464.278 117.625C464.804 118.607 464.944 118.749 464.951 118.897C465.442 130 465.441 130 454.516 130C449.52 130 444.521 130.099 439.528 129.964C436.508 129.881 435.811 131.434 435.989 134.008C436.16 136.482 436.001 139.062 439.675 139.017C445.17 138.95 450.678 138.797 456.156 139.11C458.064 139.22 461.251 140.313 461.497 141.462C462.079 144.172 462.296 148.308 460.714 149.792C458.759 151.626 454.858 151.67 451.752 151.922C447.781 152.243 443.756 152.161 439.77 151.957C435.464 151.735 436.061 154.595 435.973 157.273C435.881 160.051 436.063 162.178 439.817 162.055C445.972 161.852 452.139 161.958 458.301 162.011C465.181 162.07 467.652 164.919 465.796 171.461C465.362 172.992 462.542 174.799 460.778 174.844C448.961 175.143 437.132 175.044 425.309 174.973C421.479 174.95 419.957 172.664 419.982 168.983C420.039 160.823 420 152.662 420 144.002Z" fill="url(#paint8_linear_1_427)"/>
<path d="M469.656 162.177C464.367 151.086 464.428 140.219 469.909 129.7C474.045 121.763 481.617 118.005 490.032 117.205C496.993 116.543 504.148 117.432 511.165 118.148C513.199 118.356 516.526 120.17 516.682 121.542C517.006 124.386 515.85 127.528 514.719 130.311C514.466 130.936 511.82 130.648 510.274 130.68C503.948 130.81 497.538 130.317 491.32 131.193C486.421 131.882 483.273 136.925 482.991 141.908C482.876 143.925 482.282 145.987 482.551 147.941C483.83 157.241 487.623 163.82 502.023 162.012C505.256 161.606 508.521 161.01 511.744 161.147C513.196 161.208 515.811 162.898 515.778 163.77C515.658 167 520.027 171.303 514.124 173.349C511.721 174.182 509.122 174.937 506.622 174.91C499.564 174.835 492.45 174.792 485.472 173.876C478.471 172.956 473.573 168.356 469.656 162.177Z" fill="url(#paint9_linear_1_427)"/>
<path d="M64.5 213C85.0698 225.658 118.5 226.5 118.5 226.5C118.5 226.5 126 225 121.5 222.5C117 220 86.7003 215 64.5 196.5C58.5 191.5 53.4403 184.655 50.2467 176.5C43.5 164 42.6884 138.826 41.5 141.5C37.5 150.5 36 158.5 37.5 175C39 191.5 51.5 205 64.5 213Z" fill="url(#paint10_linear_1_427)"/>
<path d="M111.5 203.5C111.5 203.5 99.3241 179.237 100 170C100.556 162.405 106 155 111.5 149C115.796 144.314 131 122.5 127.5 125C124 127.5 98.541 148.571 94 155C89.767 160.993 87.5 164.835 87.5 172.5C87.5 180.5 92.5499 187.574 96.5 192.5C101.649 198.921 113.5 207.5 111.5 203.5Z" fill="url(#paint11_linear_1_427)"/>
<path d="M148.5 139C145.5 147 144.5 158.5 144.5 158.5L151 187C151 187 155.465 192.878 158 191C160.535 189.122 160.5 184 159 178C157.5 172 156 170.5 156 170.5C156 170.5 166.5 173.5 173 175.5C177.264 176.812 185 173.5 185 173.5C185 173.5 181.5 168 175 164C171.572 161.89 165.5 160 165.5 160C165.5 160 170.359 158.725 173 157C177.676 153.946 193.346 146.549 189.5 142.5C187.179 140.056 177.5 142.5 173 144L158 149C158 149 162 142.5 165.5 133.5C169 124.5 151.5 131 148.5 139Z" fill="url(#paint12_radial_1_427)"/>
<path d="M173.5 100.5C169.5 104.5 149 138 149 138L152 120.5C152 120.5 149 109.5 148 102C147.721 99.9065 149.096 97.9315 151 97.5C152.961 97.0558 155.5 100.5 155.5 100.5L161 111L163.5 109.5L161 94.5C161 94.5 157 87.5 157 82C157 80.2535 157.969 78.8402 159.5 78C162.045 76.6035 165 83.5 165 83.5L171.5 91.5L173.5 85C173.5 85 169.5 75.5 169 74.5C168.195 72.8899 170.5 71 172 71C173.5 71 176.333 73.5 179 74.5C179 74.5 184.5 66 186 65C187.31 64.1268 189.5 67 189.5 67L188.5 77.5C191 78.1667 194.843 76.7386 196.5 79.5C198.773 83.2887 191.333 84.8334 188.5 87.5C185.667 90.1667 177.5 96.5 173.5 100.5Z" fill="url(#paint13_linear_1_427)"/>
</g>
<defs>
<linearGradient id="paint0_linear_1_427" x1="223" y1="157" x2="128.5" y2="248" gradientUnits="userSpaceOnUse">
<stop stop-color="#C3F2F7"/>
<stop offset="0.5" stop-color="#69A8EE"/>
<stop offset="1" stop-color="#0F5DE5"/>
</linearGradient>
<linearGradient id="paint1_linear_1_427" x1="223" y1="157" x2="128.5" y2="248" gradientUnits="userSpaceOnUse">
<stop stop-color="#C3F2F7"/>
<stop offset="0.5" stop-color="#69A8EE"/>
<stop offset="1" stop-color="#0F5DE5"/>
</linearGradient>
<linearGradient id="paint2_linear_1_427" x1="152" y1="158" x2="115" y2="163" gradientUnits="userSpaceOnUse">
<stop stop-color="#248CFF"/>
<stop offset="1" stop-color="#002E60"/>
</linearGradient>
<linearGradient id="paint3_linear_1_427" x1="65" y1="103.5" x2="106" y2="133.5" gradientUnits="userSpaceOnUse">
<stop stop-color="#F6DD0E"/>
<stop offset="1" stop-color="#EF7C09"/>
</linearGradient>
<linearGradient id="paint4_linear_1_427" x1="58" y1="103.5" x2="99" y2="120.5" gradientUnits="userSpaceOnUse">
<stop stop-color="#FFEF3E"/>
<stop offset="1" stop-color="#FFD569"/>
</linearGradient>
<linearGradient id="paint5_linear_1_427" x1="366.029" y1="115.984" x2="366.029" y2="175.41" gradientUnits="userSpaceOnUse">
<stop stop-color="#E6F4F4"/>
<stop offset="0.841346" stop-color="#00A1FF"/>
</linearGradient>
<linearGradient id="paint6_linear_1_427" x1="277.728" y1="108.577" x2="277.728" y2="175.229" gradientUnits="userSpaceOnUse">
<stop stop-color="#E6F4F4"/>
<stop offset="0.841346" stop-color="#00A1FF"/>
</linearGradient>
<linearGradient id="paint7_linear_1_427" x1="547.996" y1="116.602" x2="547.996" y2="175.067" gradientUnits="userSpaceOnUse">
<stop stop-color="#E6F4F4"/>
<stop offset="0.841346" stop-color="#00A1FF"/>
</linearGradient>
<linearGradient id="paint8_linear_1_427" x1="443.187" y1="116.766" x2="443.187" y2="175.047" gradientUnits="userSpaceOnUse">
<stop stop-color="#E6F4F4"/>
<stop offset="0.841346" stop-color="#00A1FF"/>
</linearGradient>
<linearGradient id="paint9_linear_1_427" x1="491.482" y1="116.972" x2="491.482" y2="174.911" gradientUnits="userSpaceOnUse">
<stop stop-color="#E6F4F4"/>
<stop offset="1" stop-color="#00A1FF"/>
</linearGradient>
<linearGradient id="paint10_linear_1_427" x1="95" y1="133.5" x2="121" y2="236" gradientUnits="userSpaceOnUse">
<stop offset="0.394231" stop-color="#6FCEDA"/>
<stop offset="1" stop-color="#0F5DE5"/>
</linearGradient>
<linearGradient id="paint11_linear_1_427" x1="95" y1="133.5" x2="121" y2="236" gradientUnits="userSpaceOnUse">
<stop offset="0.394231" stop-color="#6FCEDA"/>
<stop offset="1" stop-color="#0F5DE5"/>
</linearGradient>
<radialGradient id="paint12_radial_1_427" cx="0" cy="0" r="1" gradientUnits="userSpaceOnUse" gradientTransform="translate(151.5 159) rotate(5.29008) scale(27.1155 26.5605)">
<stop stop-color="white"/>
<stop offset="0.831731" stop-color="#AEE0F5"/>
</radialGradient>
<linearGradient id="paint13_linear_1_427" x1="160" y1="81.5" x2="183" y2="94" gradientUnits="userSpaceOnUse">
<stop stop-color="#2B94E1"/>
<stop offset="0.855769" stop-color="#C3F2F7"/>
</linearGradient>
<clipPath id="clip0_1_427">
<rect width="601" height="272" fill="white"/>
</clipPath>
</defs>
</svg>
